<svg width="71" height="72" viewBox="0 0 71 72" fill="none" xmlns="http://www.w3.org/2000/svg">
<ellipse cx="29.4248" cy="17.009" rx="19.1949" ry="10.9355" transform="rotate(20.6779 29.4248 17.009)" fill="black"/>
<circle cx="60.1922" cy="44.8471" r="7.60449" fill="#5C4636"/>
<circle cx="11.352" cy="44.8471" r="7.60449" fill="#5C4636"/>
<path fill-rule="evenodd" clip-rule="evenodd" d="M11.9959 37.7725L11.9959 47.0884C11.9959 60.4864 22.8571 71.3477 36.2552 71.3477C49.6533 71.3477 60.5146 60.4864 60.5146 47.0883V37.7725H11.9959Z" fill="#957259"/>
<path fill-rule="evenodd" clip-rule="evenodd" d="M11.9587 49.2612L11.9587 41.7361C11.9587 28.3284 22.8278 17.4593 36.2356 17.4593C49.6433 17.4593 60.5124 28.3284 60.5124 41.7361V49.2612H11.9587Z" fill="#957259"/>
<rect x="26.4541" y="40.9928" width="9.63949" height="13.4953" rx="4.81975" fill="white"/>
<rect x="36.6284" y="40.9928" width="9.63949" height="13.4953" rx="4.81975" fill="white"/>
<rect x="32.1311" y="47.7386" width="2.99895" height="4.17711" rx="1.49948" fill="black"/>
<rect x="42.4126" y="47.7386" width="2.99895" height="4.17711" rx="1.49948" fill="black"/>
<path d="M26.2404 46.6694C26.2404 44.6333 27.156 40.9928 31.2709 40.9928C35.4787 40.9928 36.4521 44.8303 36.4144 46.6694" stroke="#4B3729" stroke-width="1.46064" stroke-linecap="round"/>
<path d="M36.4151 46.6694C36.4151 44.6333 37.3307 40.9928 41.4456 40.9928C45.6534 40.9928 46.6268 44.8303 46.5891 46.6694" stroke="#4B3729" stroke-width="1.46064" stroke-linecap="round"/>
<path d="M33.9534 57.9155L34.2203 58.0609C35.6326 58.8306 37.3511 58.775 38.7107 57.9155" stroke="#FF5252" stroke-width="6.28075" stroke-linecap="round"/>
<circle cx="36.4156" cy="53.5241" r="1.49948" fill="#5C4636"/>
<path d="M34.2731 57.9155L34.5195 58.0497C35.8232 58.7602 37.4095 58.7089 38.6644 57.9155" stroke="#C23A3A" stroke-width="0.73032" stroke-linecap="round"/>
<path d="M38.8264 35.7735C26.5307 33.6314 29.776 22.4925 32.9356 17.1907H44.0211C47.2342 19.0294 54.0997 23.692 55.8562 27.6335C58.0519 32.5604 54.196 38.4512 38.8264 35.7735Z" fill="black"/>
<path d="M47.3525 34.7149C37.8217 26.6566 44.8267 24.2796 50.2312 21.2992L56.4433 22.225C60.2992 23.8851 66.6364 32.0005 66.162 36.2895C65.5689 41.6507 59.266 44.7879 47.3525 34.7149Z" fill="black"/>
<path d="M13.0094 19.6573C23.55 12.8047 32.4566 12.1555 34.8197 18.9761L31.8775 27.2254C29.7556 38.3457 12.6926 40.9154 8.03619 38.7512C2.21569 36.0459 -0.166204 28.2231 13.0094 19.6573Z" fill="black"/>
<ellipse cx="50.4626" cy="21.6215" rx="15.2209" ry="8.30068" transform="rotate(10.8491 50.4626 21.6215)" fill="black"/>
</svg>
