<svg width="62" height="74" viewBox="0 0 62 74" fill="none" xmlns="http://www.w3.org/2000/svg">
<ellipse cx="9.99084" cy="67.3644" rx="3.0901" ry="5.9742" fill="#271709"/>
<ellipse cx="53.5618" cy="67.3644" rx="3.0901" ry="5.9742" fill="#271709"/>
<ellipse cx="8.72817" cy="67.4059" rx="3.0901" ry="5.9742" transform="rotate(13.5098 8.72817 67.4059)" fill="#271709"/>
<ellipse cx="52.2992" cy="67.4059" rx="3.0901" ry="5.9742" transform="rotate(13.5098 52.2992 67.4059)" fill="#271709"/>
<ellipse cx="11.4055" cy="67.4067" rx="3.0901" ry="5.9742" transform="rotate(-15.7723 11.4055 67.4067)" fill="#271709"/>
<ellipse cx="54.9761" cy="67.4067" rx="3.0901" ry="5.9742" transform="rotate(-15.7723 54.9761 67.4067)" fill="#271709"/>
<ellipse cx="9.8379" cy="42.1789" rx="5.9227" ry="4.78966" fill="#271709"/>
<ellipse cx="53.6146" cy="42.1789" rx="5.9227" ry="4.78966" fill="#271709"/>
<ellipse cx="9.83834" cy="48.4643" rx="5.20167" ry="4.17164" fill="#271709"/>
<ellipse cx="53.6146" cy="48.4643" rx="5.20167" ry="4.17164" fill="#271709"/>
<ellipse cx="9.83823" cy="54.7457" rx="4.37764" ry="3.55362" fill="#271709"/>
<ellipse cx="53.6145" cy="54.7457" rx="4.37764" ry="3.55362" fill="#271709"/>
<ellipse cx="9.83685" cy="59.9989" rx="3.75962" ry="3.0386" fill="#271709"/>
<ellipse cx="53.6135" cy="59.9989" rx="3.75962" ry="3.0386" fill="#271709"/>
<path d="M30.7113 0.000182211C7.00734 0.000182211 2.67833 20.5911 2.67833 29.0471H59.5362C59.5362 20.1519 55.1544 0.000182211 30.7113 0.000182211Z" fill="#271709"/>
<circle cx="54.2836" cy="32.6503" r="7.31324" fill="#FAC4A6"/>
<circle cx="7.31335" cy="32.6503" r="7.31324" fill="#FAC4A6"/>
<path fill-rule="evenodd" clip-rule="evenodd" d="M7.93143 25.8501V34.8087C7.93143 47.6937 18.3767 58.139 31.2617 58.139C44.1466 58.139 54.5919 47.6937 54.5919 34.8087V25.8501H7.93143Z" fill="#FFE4D5"/>
<path fill-rule="evenodd" clip-rule="evenodd" d="M7.89832 36.898V29.6583C7.89832 16.764 18.3512 6.31117 31.2454 6.31117C44.1396 6.31117 54.5925 16.764 54.5925 29.6583V36.898H7.89832Z" fill="#FFE4D4"/>
<path d="M37.3903 4.36737C35.517 11.9711 26.5288 27.1126 5.56223 25.5349C8.11827 15.981 18.2199 -2.14071 37.3903 4.36737Z" fill="#271709"/>
<rect x="21.8368" y="28.9422" width="9.2703" height="12.9784" rx="4.63515" fill="white"/>
<rect x="31.6214" y="28.9422" width="9.2703" height="12.9784" rx="4.63515" fill="white"/>
<rect x="27.2965" y="35.4317" width="2.88409" height="4.01713" rx="1.44205" fill="black"/>
<rect x="37.1855" y="35.4317" width="2.88409" height="4.01713" rx="1.44205" fill="black"/>
<path d="M46.3752 16.4234C42.9091 11.4517 37.3396 9.91413 34.1975 8.63277V4.32743C35.6752 4.48119 40.2507 5.26026 46.7319 7.14641C53.2131 9.03256 57.0073 20.2675 58.0943 25.6491H55.6122C52.6513 25.6491 50.0735 23.6605 48.8673 20.9565C48.1877 19.4332 47.3463 17.8162 46.3752 16.4234Z" fill="#271709"/>
<path d="M21.6308 34.4014C21.6308 32.4433 22.5113 28.9422 26.4686 28.9422C30.5152 28.9422 31.4513 32.6327 31.4151 34.4014" stroke="#DFA381" stroke-width="1.4047" stroke-linecap="round"/>
<path d="M31.4173 34.4014C31.4173 32.4433 32.2978 28.9422 36.2551 28.9422C40.3017 28.9422 41.2378 32.6327 41.2016 34.4014" stroke="#DFA381" stroke-width="1.4047" stroke-linecap="round"/>
<path d="M29.0484 45.2176L29.305 45.3575C30.6633 46.0977 32.3159 46.0442 33.6234 45.2176" stroke="#FF5252" stroke-width="6.0402" stroke-linecap="round"/>
<circle cx="31.4164" cy="40.9965" r="1.44205" fill="#FAC4A6"/>
<path d="M29.3569 45.2176L29.5938 45.3467C30.8476 46.03 32.3731 45.9806 33.58 45.2176" stroke="#C23A3A" stroke-width="0.702349" stroke-linecap="round"/>
<path d="M7.62302 62.5222C9.02351 63.0537 10.5685 63.0636 11.9757 62.5501L12.0522 62.5222" stroke="#5A42EE" stroke-width="1.12376" stroke-linecap="round"/>
<path d="M51.3997 62.5222C52.8002 63.0537 54.3452 63.0636 55.7524 62.5501L55.8288 62.5222" stroke="#5A42EE" stroke-width="1.12376" stroke-linecap="round"/>
</svg>
