<svg width="70" height="66" viewBox="0 0 70 66" fill="none" xmlns="http://www.w3.org/2000/svg">
<circle cx="10.918" cy="10.918" r="10.918" fill="#231D18"/>
<circle cx="58.569" cy="10.9181" r="10.918" fill="#231D18"/>
<path d="M34.0072 10.0017C11.3762 10.0017 7.24313 28.953 7.24313 36.7356H61.5272C61.5272 28.5487 57.3438 10.0017 34.0072 10.0017Z" fill="#48382D"/>
<circle cx="57.3437" cy="40.3064" r="7.24468" fill="#F9C8BF"/>
<circle cx="10.8152" cy="40.3064" r="7.24468" fill="#F9C8BF"/>
<path fill-rule="evenodd" clip-rule="evenodd" d="M11.4271 33.5681V42.4438C11.4271 55.2079 21.7745 65.5553 34.5386 65.5553C47.3028 65.5553 57.6502 55.2079 57.6502 42.4438V33.5681H11.4271Z" fill="#FFE6E1"/>
<path fill-rule="evenodd" clip-rule="evenodd" d="M11.3955 44.5126V37.3424C11.3955 24.569 21.7504 14.2141 34.5238 14.2141C47.2971 14.2141 57.652 24.569 57.652 37.3424V44.5126H11.3955Z" fill="#FFE6E1"/>
<path d="M40.6115 12.2854C38.7558 19.8178 29.8519 34.8174 9.08185 33.2545C11.6139 23.7901 21.6209 5.83832 40.6115 12.2854Z" fill="#48382D"/>
<rect x="25.202" y="36.6329" width="9.1834" height="12.8568" rx="4.5917" fill="white"/>
<rect x="34.8961" y="36.6329" width="9.1834" height="12.8568" rx="4.5917" fill="white"/>
<rect x="30.6104" y="43.0611" width="2.85706" height="3.97947" rx="1.42853" fill="black"/>
<rect x="40.4058" y="43.0611" width="2.85706" height="3.97947" rx="1.42853" fill="black"/>
<path d="M49.5106 24.2275C46.077 19.3025 40.5597 17.7793 37.4471 16.51V12.245C38.9108 12.3973 43.4435 13.169 49.8639 15.0375C56.2843 16.906 60.043 28.0356 61.1198 33.3668H58.661C55.7278 33.3668 53.1742 31.3968 51.9793 28.7181C51.3061 27.2091 50.4725 25.6073 49.5106 24.2275Z" fill="#48382D"/>
<path d="M24.9991 42.0409C24.9991 40.1011 25.8714 36.6328 29.7916 36.6329C33.8002 36.6329 34.7276 40.2887 34.6917 42.0409" stroke="#E19283" stroke-width="1.39153" stroke-linecap="round"/>
<path d="M34.6924 42.0409C34.6924 40.1011 35.5646 36.6328 39.4848 36.6329C43.4935 36.6329 44.4209 40.2887 44.385 42.0409" stroke="#E19283" stroke-width="1.39153" stroke-linecap="round"/>
<path d="M32.3467 52.761L32.601 52.8996C33.9465 53.6329 35.5836 53.5798 36.8789 52.761" stroke="#FF5252" stroke-width="5.98358" stroke-linecap="round"/>
<circle cx="34.6916" cy="48.5702" r="1.42853" fill="#F9C8BF"/>
<path d="M32.6524 52.761L32.8871 52.8889C34.1291 53.5658 35.6403 53.5169 36.836 52.761" stroke="#C23A3A" stroke-width="0.695765" stroke-linecap="round"/>
<circle cx="14.9985" cy="49.6926" r="0.204076" fill="#E19283"/>
<circle cx="17.8564" cy="51.0198" r="0.204076" fill="#E19283"/>
<circle cx="22.8551" cy="52.9581" r="0.204076" fill="#E19283"/>
<circle cx="25.2032" cy="51.9407" r="0.204076" fill="#E19283"/>
<circle cx="50.1007" cy="52.5513" r="0.204076" fill="#E19283"/>
<circle cx="23.8767" cy="47.9588" r="0.204076" fill="#E19283"/>
<circle cx="22.8551" cy="49.2867" r="0.204076" fill="#E19283"/>
<circle cx="30.8145" cy="50.2036" r="0.204076" fill="#E19283"/>
<circle cx="40.6098" cy="50.8167" r="0.204076" fill="#E19283"/>
<circle cx="45.3048" cy="48.7733" r="0.204076" fill="#E19283"/>
<circle cx="47.5493" cy="49.9992" r="0.204076" fill="#E19283"/>
<circle cx="50.7129" cy="49.1833" r="0.204076" fill="#E19283"/>
<circle cx="49.6917" cy="47.9588" r="0.204076" fill="#E19283"/>
<circle cx="52.6516" cy="48.8759" r="0.204076" fill="#E19283"/>
<circle cx="53.6704" cy="49.9992" r="0.204076" fill="#E19283"/>
<circle cx="55.814" cy="48.3671" r="0.204076" fill="#E19283"/>
<circle cx="55.2018" cy="47.0394" r="0.204076" fill="#E19283"/>
<circle cx="52.6516" cy="45.6113" r="0.204076" fill="#E19283"/>
<circle cx="52.6516" cy="46.6327" r="0.204076" fill="#E19283"/>
<circle cx="56.0189" cy="45.6113" r="0.204076" fill="#E19283"/>
<circle cx="48.3656" cy="47.1437" r="0.204076" fill="#E19283"/>
<circle cx="45.3048" cy="52.143" r="0.204076" fill="#E19283"/>
<circle cx="13.9785" cy="46.6327" r="0.204076" fill="#E19283"/>
<circle cx="27.7534" cy="50.6114" r="0.204076" fill="#E19283"/>
<circle cx="20.1004" cy="49.9992" r="0.204076" fill="#E19283"/>
<circle cx="17.0393" cy="47.0394" r="0.204076" fill="#E19283"/>
</svg>
