<svg viewBox="0 0 68 69" fill="none" xmlns="http://www.w3.org/2000/svg">
<ellipse cx="28.2982" cy="16.3576" rx="18.4597" ry="10.5167" transform="rotate(20.6779 28.2982 16.3576)" fill="#C1B7FF"/>
<circle cx="57.8889" cy="43.1293" r="7.31324" fill="#755946"/>
<circle cx="10.919" cy="43.1293" r="7.31324" fill="#755946"/>
<path fill-rule="evenodd" clip-rule="evenodd" d="M11.5364 36.3272V45.2859C11.5364 58.1708 21.9817 68.6161 34.8666 68.6161C47.7515 68.6161 58.1968 58.1709 58.1968 45.2859V36.3272H11.5364Z" fill="#957259"/>
<path fill-rule="evenodd" clip-rule="evenodd" d="M11.5016 47.3759V40.1387C11.5016 27.2445 21.9544 16.7916 34.8487 16.7916C47.7429 16.7916 58.1958 27.2445 58.1958 40.1387V47.3759H11.5016Z" fill="#957259"/>
<rect x="25.4421" y="39.4214" width="9.2703" height="12.9784" rx="4.63515" fill="white"/>
<rect x="35.2262" y="39.4214" width="9.2703" height="12.9784" rx="4.63515" fill="white"/>
<rect x="30.9017" y="45.9093" width="2.88409" height="4.01713" rx="1.44205" fill="black"/>
<rect x="40.7883" y="45.9093" width="2.88409" height="4.01713" rx="1.44205" fill="black"/>
<path d="M25.2352 44.8806C25.2352 42.9225 26.1157 39.4214 30.073 39.4214C34.1196 39.4214 35.0558 43.1119 35.0195 44.8806" stroke="#4B3729" stroke-width="1.4047" stroke-linecap="round"/>
<path d="M35.0221 44.8806C35.0221 42.9225 35.9026 39.4214 39.8599 39.4214C43.9065 39.4214 44.8427 43.1119 44.8064 44.8806" stroke="#4B3729" stroke-width="1.4047" stroke-linecap="round"/>
<path d="M32.6508 55.6968L32.9075 55.8367C34.2657 56.5769 35.9184 56.5234 37.2259 55.6968" stroke="#FF5252" stroke-width="6.0402" stroke-linecap="round"/>
<circle cx="35.0212" cy="51.4717" r="1.44205" fill="#755946"/>
<path d="M32.9621 55.6968L33.1991 55.8259C34.4528 56.5092 35.9783 56.4598 37.1853 55.6968" stroke="#C23A3A" stroke-width="0.702349" stroke-linecap="round"/>
<path d="M37.3386 34.4028C25.5138 32.3427 28.6348 21.6304 31.6734 16.5317H42.3343C45.4244 18.2999 52.0269 22.784 53.7162 26.5745C55.8278 31.3127 52.1196 36.9779 37.3386 34.4028Z" fill="#C1B7FF"/>
<path d="M45.541 33.3854C36.3752 25.6356 43.1119 23.3497 48.3094 20.4835L54.2836 21.3739C57.9918 22.9704 64.0863 30.7749 63.63 34.8996C63.0597 40.0555 56.9982 43.0726 45.541 33.3854Z" fill="#C1B7FF"/>
<path d="M12.5112 18.9038C22.648 12.3137 31.2135 11.6894 33.4861 18.2488L30.6566 26.1821C28.6159 36.8765 12.2065 39.3478 7.72841 37.2664C2.13084 34.6647 -0.159834 27.1415 12.5112 18.9038Z" fill="#C1B7FF"/>
<ellipse cx="48.5325" cy="20.7936" rx="14.6379" ry="7.98276" transform="rotate(10.8491 48.5325 20.7936)" fill="#C1B7FF"/>
</svg>
