<svg width="62" height="72" viewBox="0 0 62 72" fill="none" xmlns="http://www.w3.org/2000/svg">
<path d="M26.5838 29.7722C11.6433 31.0464 16.3224 21.0007 20.5296 15.8186C26.3663 7.80326 36.9786 0.542174 45.5917 8.67728C52.3808 15.0895 45.2594 28.1795 26.5838 29.7722Z" fill="#7D68FF"/>
<path d="M18.3474 24.727C7.61514 14.5896 15.7785 7.71393 21.2017 5.5433C29.1367 1.67135 43.4083 5.5433 41.6957 17.3351C39.9831 29.127 31.7627 37.3989 18.3474 24.727Z" fill="#9F90F9"/>
<path d="M3.71576 41.9442C4.10245 35.7573 5.55252 29.7636 8.59769 25.075C18.6999 13.0877 30.6872 14.8762 33.829 14.8762C36.9708 14.8762 47.6047 16.9546 53.55 25.075C57.9303 31.0579 58.4319 38.9474 58.4319 41.9442C58.3716 47.586 53.8566 53.342 50.4714 56.8715C48.4415 58.988 47.2594 63.1142 44.4556 63.9739C41.3996 64.911 34.8738 64.8537 21.2106 61.4812C18.5437 60.823 16.6304 58.2943 15.0102 56.0762C11.4276 51.1714 3.4133 46.7837 3.71576 41.9442Z" fill="#C1B7FF"/>
<path d="M30.639 17.4852C8.93625 17.4852 4.97271 35.6111 4.97271 43.0548H57.0304C57.0304 35.2244 53.0185 17.4852 30.639 17.4852Z" fill="#C1B7FF"/>
<path d="M12.9733 42.2569C25.5616 40.8102 30.7479 32.7183 32.3657 25.801C33.1263 22.549 30.2987 19.8037 26.9973 20.3085C14.5096 22.2182 9.39716 30.1343 7.82457 36.7919C7.08155 39.9375 9.76228 42.626 12.9733 42.2569Z" fill="#D68C4B"/>
<path d="M48.9739 42.2569C36.3856 40.8102 31.1994 32.7183 29.5816 25.801C28.821 22.549 31.6485 19.8037 34.95 20.3085C47.4377 22.2182 52.5501 30.1343 54.1227 36.7919C54.8657 39.9375 52.185 42.626 48.9739 42.2569Z" fill="#D68C4B"/>
<circle cx="54.2828" cy="45.808" r="7.31324" fill="#F9C8BF"/>
<circle cx="7.31326" cy="45.808" r="7.31324" fill="#F9C8BF"/>
<path fill-rule="evenodd" clip-rule="evenodd" d="M7.9303 39.0054L7.9303 47.9643C7.9303 60.8492 18.3756 71.2945 31.2605 71.2945C44.1455 71.2945 54.5908 60.8492 54.5908 47.9643V39.0054H7.9303Z" fill="#FFE6E1"/>
<path fill-rule="evenodd" clip-rule="evenodd" d="M7.89823 50.1108V42.8724C7.89823 29.9782 18.3511 19.5253 31.2453 19.5253C44.1396 19.5253 54.5924 29.9782 54.5924 42.8724V50.1108H7.89823Z" fill="#FFE6E1"/>
<rect x="21.8363" y="42.1001" width="9.2703" height="12.9784" rx="4.63515" fill="white"/>
<rect x="31.6233" y="42.1001" width="9.2703" height="12.9784" rx="4.63515" fill="white"/>
<rect x="27.296" y="48.5878" width="2.88409" height="4.01713" rx="1.44205" fill="black"/>
<rect x="37.185" y="48.5878" width="2.88409" height="4.01713" rx="1.44205" fill="black"/>
<path d="M21.6319 47.5593C21.6319 45.6012 22.5124 42.1001 26.4697 42.1001C30.5163 42.1001 31.4524 45.7906 31.4162 47.5593" stroke="#E19283" stroke-width="1.4047" stroke-linecap="round"/>
<path d="M31.4164 47.5593C31.4164 45.6012 32.2969 42.1001 36.2542 42.1001C40.3008 42.1001 41.237 45.7906 41.2007 47.5593" stroke="#E19283" stroke-width="1.4047" stroke-linecap="round"/>
<path d="M29.0475 58.3755L29.3042 58.5154C30.6624 59.2556 32.3151 59.2021 33.6226 58.3755" stroke="#FF5252" stroke-width="6.0402" stroke-linecap="round"/>
<circle cx="31.4155" cy="54.1502" r="1.44205" fill="#F9C8BF"/>
<path d="M29.356 58.3755L29.5929 58.5046C30.8467 59.1879 32.3722 59.1385 33.5791 58.3755" stroke="#C23A3A" stroke-width="0.702349" stroke-linecap="round"/>
<path d="M12.4401 41.8886C25.7478 40.3592 31.2303 31.805 32.9406 24.4924C33.7446 21.0546 30.7555 18.1524 27.2655 18.6861C14.0642 20.7048 8.65962 29.0733 6.99716 36.1114C6.21168 39.4367 9.0456 42.2788 12.4401 41.8886Z" fill="#C1B7FF"/>
<path d="M50.5282 41.7314C36.0122 40.3419 30.0489 31.7951 28.1937 24.488C27.3272 21.0748 30.3047 18.1907 33.7966 18.6458C48.219 20.5255 54.109 28.8888 55.9182 35.9261C56.7681 39.2321 53.9261 42.0567 50.5282 41.7314Z" fill="#C1B7FF"/>
</svg>
