<svg viewBox="0 0 66 66" fill="none" xmlns="http://www.w3.org/2000/svg">
<ellipse cx="23.5923" cy="5.55477" rx="3.95862" ry="2.15882" transform="rotate(36.1529 23.5923 5.55477)" fill="black"/>
<ellipse cx="27.9796" cy="4.50506" rx="3.95862" ry="2.15882" transform="rotate(116.159 27.9796 4.50506)" fill="black"/>
<path d="M32.8646 4.81715C8.5914 4.81715 4.15843 26.2297 4.15843 35.0232H62.3816C62.3816 25.7729 57.8946 4.81715 32.8646 4.81715Z" fill="black"/>
<circle cx="57.6751" cy="38.4146" r="7.77039" fill="#F9C8BF"/>
<circle cx="7.77044" cy="38.4146" r="7.77039" fill="#F9C8BF"/>
<path fill-rule="evenodd" clip-rule="evenodd" d="M8.42766 31.188V40.7065C8.42766 54.3969 19.5259 65.4951 33.2163 65.4951C46.9066 65.4951 58.0049 54.3969 58.0049 40.7065V31.188H8.42766Z" fill="#FFE6E1"/>
<path fill-rule="evenodd" clip-rule="evenodd" d="M8.39325 42.9837V35.289C8.39325 21.5887 19.4995 10.4824 33.1998 10.4824C46.9 10.4824 58.0063 21.5887 58.0063 35.289V42.9837H8.39325Z" fill="#FFE6E1"/>
<path d="M11.0968 33.022C30.0003 32.2657 38.3229 17.9208 40.1657 10.441C22.525 4.45222 12.1118 18.0923 7.87463 28.4478C6.94143 30.7285 8.63455 33.1206 11.0968 33.022Z" fill="black"/>
<rect x="23.2025" y="34.4765" width="9.84979" height="13.7897" rx="4.92489" fill="white"/>
<rect x="33.5981" y="34.4765" width="9.84979" height="13.7897" rx="4.92489" fill="white"/>
<rect x="29.0015" y="41.3687" width="3.06438" height="4.26824" rx="1.53219" fill="black"/>
<rect x="39.5083" y="41.3687" width="3.06438" height="4.26824" rx="1.53219" fill="black"/>
<path d="M49.7114 23.249C46.0286 17.9665 40.111 16.3328 36.7725 14.9714V10.3969C38.3425 10.5603 43.204 11.388 50.0903 13.3921C56.9766 15.3961 61.0081 27.3333 62.163 33.0514H59.2127C56.2518 33.0514 53.671 31.0649 52.4856 28.3517C51.7425 26.6511 50.8042 24.8164 49.7114 23.249Z" fill="black"/>
<path d="M22.982 40.2769C22.982 38.1963 23.9175 34.4764 28.1222 34.4765C32.4218 34.4765 33.4164 38.3976 33.3779 40.2769" stroke="#E19283" stroke-width="1.4047" stroke-linecap="round"/>
<path d="M33.3796 40.2769C33.3796 38.1963 34.3151 34.4764 38.5198 34.4765C42.8193 34.4765 43.814 38.3976 43.7755 40.2769" stroke="#E19283" stroke-width="1.4047" stroke-linecap="round"/>
<path d="M30.8622 51.7662L31.1349 51.9149C32.5781 52.7014 34.334 52.6445 35.7233 51.7662" stroke="#FF5252" stroke-width="6.0402" stroke-linecap="round"/>
<circle cx="33.3804" cy="47.2793" r="1.53219" fill="#F9C8BF"/>
<path d="M31.1919 51.7662L31.4437 51.9034C32.7758 52.6294 34.3967 52.5769 35.6791 51.7662" stroke="#C23A3A" stroke-width="0.702349" stroke-linecap="round"/>
<path d="M29.7082 14.1493C39.3307 8.29786 47.8014 8.2662 50.5111 14.9399L48.2439 22.6282C46.9506 33.1141 30.8103 34.4419 26.2163 32.0661C20.4738 29.0963 17.68 21.4636 29.7082 14.1493Z" fill="black"/>
</svg>
