<svg viewBox="0 0 70 65" fill="none" xmlns="http://www.w3.org/2000/svg">
<path d="M47.7431 3.94637C36.2906 -0.355177 30.2571 6.88501 27.9663 9.40547C31.5409 22.4612 51.9841 48.9351 57.1614 52.2092C62.3387 55.4833 66.6169 50.1092 66.8846 47.4187C67.9757 40.5242 69.2706 12.0321 47.7431 3.94637Z" fill="#211D18"/>
<path d="M2.18463 34.7615C2.59358 28.2238 4.12711 21.8905 7.34757 16.9361C18.0313 4.26942 30.7086 6.15923 34.0313 6.15923C37.354 6.15923 48.6 8.35547 54.8875 16.9361C59.5199 23.2581 60.0504 31.5948 60.0504 34.7615C60.0116 38.3866 59.7352 43.2937 59.4071 47.9875C58.8197 56.3904 51.8039 62.8144 43.3806 62.8513C36.3 62.8823 27.581 62.9045 19.3068 62.8826C10.4785 62.8593 3.09299 55.795 2.52235 46.9851C2.21514 42.2421 2.00029 37.7084 2.18463 34.7615Z" fill="#463729"/>
<circle cx="54.2839" cy="39.1217" r="7.31324" fill="#F9C8BF"/>
<circle cx="7.31324" cy="39.1217" r="7.31324" fill="#F9C8BF"/>
<path fill-rule="evenodd" clip-rule="evenodd" d="M7.93381 32.3214V41.2799C7.93381 54.1648 18.3791 64.6101 31.264 64.6101C44.149 64.6101 54.5943 54.1648 54.5943 41.2799V32.3214H7.93381Z" fill="#FFE6E1"/>
<path fill-rule="evenodd" clip-rule="evenodd" d="M7.89862 43.4217V36.1821C7.89862 23.2878 18.3515 12.835 31.2457 12.835C44.14 12.835 54.5928 23.2878 54.5928 36.1821V43.4217H7.89862Z" fill="#FFE6E1"/>
<rect x="21.8367" y="35.4138" width="9.2703" height="12.9784" rx="4.63515" fill="white"/>
<rect x="31.6237" y="35.4138" width="9.2703" height="12.9784" rx="4.63515" fill="white"/>
<rect x="27.2956" y="41.9015" width="2.88409" height="4.01713" rx="1.44205" fill="black"/>
<rect x="37.1846" y="41.9015" width="2.88409" height="4.01713" rx="1.44205" fill="black"/>
<path d="M21.6299 40.873C21.6299 38.9148 22.5104 35.4138 26.4677 35.4138C30.5143 35.4138 31.4504 39.1043 31.4142 40.873" stroke="#E19283" stroke-width="1.4047" stroke-linecap="round"/>
<path d="M31.4172 40.873C31.4172 38.9148 32.2977 35.4138 36.255 35.4138C40.3016 35.4138 41.2377 39.1043 41.2015 40.873" stroke="#E19283" stroke-width="1.4047" stroke-linecap="round"/>
<path d="M29.0483 51.6892L29.305 51.8291C30.6632 52.5693 32.3159 52.5158 33.6233 51.6892" stroke="#FF5252" stroke-width="6.0402" stroke-linecap="round"/>
<circle cx="31.4159" cy="47.4639" r="1.44205" fill="#F9C8BF"/>
<path d="M29.3572 51.6892L29.5941 51.8183C30.8479 52.5016 32.3734 52.4522 33.5803 51.6892" stroke="#C23A3A" stroke-width="0.702349" stroke-linecap="round"/>
<path fill-rule="evenodd" clip-rule="evenodd" d="M5.40656 30.1083C6.5602 23.3512 16.4963 13.456 20.3417 11.4646C25.0924 9.0045 31.5288 9.92182 38.3447 10.8932L38.3447 10.8932C39.7308 11.0908 41.1325 11.2906 42.539 11.4646C50.8616 12.4947 54.968 27.1726 54.8479 31.9108C52.2765 31.8539 48.8327 31.7908 45.0136 31.7396C44.4341 31.517 44.2377 30.9069 44.1874 30.5729C44.1874 29.0295 43.8323 27.1934 43.3746 25.4898C43.0964 24.4542 41.8184 24.6772 41.8184 25.7495V26.8133L41.5263 30.5729L41.5217 30.6324C41.488 30.9905 41.3287 31.5903 40.9135 31.6913C35.0107 31.6315 28.6714 31.6109 23.4694 31.6871C22.5744 31.5341 22.3041 30.9894 22.2823 30.7259L21.9856 25.806C21.923 24.7681 20.64 24.5788 20.3521 25.5779C19.8703 27.2503 19.4603 29.1102 19.3784 30.7259C19.3596 31.0462 19.1174 31.6384 18.3402 31.8107C17.5525 31.8397 16.8256 31.873 16.1702 31.9108C7.60033 32.4052 4.71987 31.5846 5.40656 30.1083Z" fill="#463729"/>
</svg>
