<svg viewBox="0 0 71 66" fill="none" xmlns="http://www.w3.org/2000/svg">
<path d="M27.8352 10.3599C22.5935 10.2021 10.8479 12.9369 5.79907 25.1382" stroke="#55391E" stroke-width="7.60253" stroke-linecap="round"/>
<path d="M52.9755 18.409C57.1127 21.547 65.3346 31.3677 65.1242 45.5466" stroke="black" stroke-width="7.60253" stroke-linecap="round"/>
<path d="M13.0577 17.5651C10.5859 19.511 5.27409 27.4734 3.80151 43.756" stroke="black" stroke-width="7.60253" stroke-linecap="round"/>
<path d="M50.9779 16.5177C54.2736 16.4125 60.9283 18.6845 61.1807 28.6139C61.4332 38.5433 61.2859 50.948 61.1807 55.9092" stroke="#55391E" stroke-width="7.60253" stroke-linecap="round"/>
<path d="M48.4529 13.089C51.661 10.4068 59.3921 13.0891 60.6761 22.1008C62.0793 31.949 60.8184 44.4628 60.6761 49.4302" stroke="#55391E" stroke-width="7.60253" stroke-linecap="round"/>
<path d="M44.5623 17.0416C41.249 10.9935 34.0069 8.79716 25.3661 10.4675C16.7999 12.1234 10.2927 20.0397 10.167 24.9829C9.91456 34.9123 10.0618 49.9467 10.167 54.9079" stroke="black" stroke-width="7.60253" stroke-linecap="round"/>
<circle cx="57.7077" cy="39.9408" r="7.46808" fill="#EEA586"/>
<circle cx="9.74503" cy="39.9408" r="7.46808" fill="#EEA586"/>
<path fill-rule="evenodd" clip-rule="evenodd" d="M10.3744 32.9918V42.1419C10.3744 55.2996 21.0409 65.9661 34.1986 65.9661C47.3564 65.9661 58.0228 55.2996 58.0228 42.1419V32.9918H10.3744Z" fill="#FFCEB2"/>
<path fill-rule="evenodd" clip-rule="evenodd" d="M10.3408 44.279V36.8844C10.3408 23.7171 21.015 13.0429 34.1822 13.0429C47.3495 13.0429 58.0236 23.7171 58.0236 36.8844V44.279H10.3408Z" fill="#FFCEB2"/>
<rect x="24.5754" y="36.1546" width="9.46658" height="13.2532" rx="4.73329" fill="white"/>
<rect x="34.5685" y="36.1546" width="9.46658" height="13.2532" rx="4.73329" fill="white"/>
<rect x="30.1508" y="42.7803" width="2.94516" height="4.10219" rx="1.47258" fill="black"/>
<rect x="40.2486" y="42.7803" width="2.94516" height="4.10219" rx="1.47258" fill="black"/>
<path d="M24.3665 41.7293C24.3665 39.7297 25.2657 36.1546 29.3068 36.1546C33.4391 36.1546 34.395 39.9232 34.358 41.7293" stroke="#BF7E63" stroke-width="1.43444" stroke-linecap="round"/>
<path d="M34.3571 41.7293C34.3571 39.7297 35.2563 36.1546 39.2974 36.1546C43.4297 36.1546 44.3856 39.9232 44.3486 41.7293" stroke="#BF7E63" stroke-width="1.43444" stroke-linecap="round"/>
<path d="M31.9398 52.7713L32.202 52.9141C33.589 53.6701 35.2766 53.6154 36.6118 52.7713" stroke="#FF5252" stroke-width="6.16809" stroke-linecap="round"/>
<circle cx="34.3592" cy="48.4605" r="1.47258" fill="#EEA586"/>
<path d="M32.2548 52.7713L32.4967 52.9032C33.777 53.6009 35.3348 53.5505 36.5673 52.7713" stroke="#C23A3A" stroke-width="0.71722" stroke-linecap="round"/>
<path d="M45.8235 17.8862C49.1193 17.7811 55.7739 20.053 56.0264 29.9824C56.2788 39.9118 56.1316 52.3166 56.0264 57.2778" stroke="black" stroke-width="7.60253" stroke-linecap="round"/>
<path d="M43.1929 18.0811C40.5086 12.3674 34.6412 10.2925 27.6408 11.8705C20.7006 13.4349 15.3268 20.142 15.3268 26.6634C15.3268 36.046 15.2416 49.1667 15.3268 53.8536" stroke="black" stroke-width="7.60253" stroke-linecap="round"/>
<path d="M43.1932 18.6467C40.9009 15.0675 31.4797 13.0989 26.5741 17.8571C21.6686 22.6154 21.9489 29.0158 21.949 31.9772" stroke="#55391E" stroke-width="7.60253" stroke-linecap="round"/>
<path d="M45.8752 11.5698C44.4026 8.58957 38.891 3.06038 28.625 4.7854C18.359 6.51043 11.7955 11.5698 9.797 13.8838" stroke="black" stroke-width="7.60253" stroke-linecap="round"/>
<path d="M46.453 10.2041C48.8021 8.45107 54.7415 6.36491 59.7062 12.0449" stroke="black" stroke-width="7.60253" stroke-linecap="round"/>
<path d="M45.6232 12.2898C51.288 10.1208 63.3509 11.267 66.2841 33.2033" stroke="#291C0F" stroke-width="7.60253" stroke-linecap="round"/>
<path d="M44.7703 16.6837C41.6823 10.1922 34.9327 7.83486 26.8795 9.62765C18.8957 11.405 12.831 19.9017 12.7138 25.2073C12.4786 35.8647 12.6158 52.0013 12.7138 57.3262" stroke="#291C0E" stroke-width="7.60253" stroke-linecap="round"/>
<path d="M14.8459 7.13518C13.6799 2.79795 17.8998 1.98272 20.1207 1.6791C23.7992 1.17623 31.0917 2.62356 31.5379 6.37546C32.0667 10.8223 26.587 12.6833 23.8339 12.7984C19.1573 12.994 16.0119 11.4724 14.8459 7.13518Z" fill="#5A42EE" fill-opacity="0.49"/>
<path fill-rule="evenodd" clip-rule="evenodd" d="M18.4475 0.179554C25.0057 -0.729778 31.2378 2.09696 33.5341 3.62399C35.3252 4.47821 37.4034 3.40585 38.2185 2.7629C42.283 0.179566 46.7263 -0.199322 52.3752 0.0762332C56.8943 0.296677 58.6211 2.83178 58.9196 4.07178C59.4707 6.29919 59.085 11.2775 53.133 13.3718C47.181 15.466 42.0648 14.0147 40.2508 13.0273C38.2516 12.0278 37.2486 8.55317 37.0156 7.74593C36.9997 7.69084 36.9873 7.64816 36.9785 7.61955C36.8408 7.17178 36.5308 6.414 35.1185 6.414C33.9888 6.414 33.5915 7.2177 33.5341 7.61955C32.8177 10.4853 30.8934 12.4188 30.0208 13.0273C26.8103 15.2662 20.6174 14.784 16.2775 13.0273C12.1581 11.36 11.0075 7.71141 11.0075 5.93178C11.0075 4.38177 11.8893 1.08889 18.4475 0.179554ZM14.9945 7.13789C13.8371 2.81167 18.0256 1.99851 20.23 1.69566C23.8811 1.19407 31.1194 2.63773 31.5622 6.3801C32.0871 10.8157 26.6481 12.6719 23.9156 12.7868C19.2738 12.9818 16.1518 11.4641 14.9945 7.13789ZM50.07 1.69566C52.2744 1.99851 56.4628 2.81167 55.3055 7.13789C54.1482 11.4641 51.0262 12.9818 46.3844 12.7868C43.6518 12.6719 38.2129 10.8157 38.7378 6.3801C39.1806 2.63773 46.4189 1.19407 50.07 1.69566Z" fill="#D7D7D7"/>
<path d="M55.4201 7.13518C56.5861 2.79795 52.3662 1.98272 50.1453 1.6791C46.4668 1.17623 39.1743 2.62356 38.7281 6.37546C38.1993 10.8223 43.679 12.6833 46.4321 12.7984C51.1086 12.994 54.2541 11.4724 55.4201 7.13518Z" fill="#5A42EE" fill-opacity="0.49"/>
</svg>
